<svg width="247" height="201" viewBox="0 0 247 201" fill="none" xmlns="http://www.w3.org/2000/svg">
<path opacity="0.5" d="M146.601 152.806C147.094 153.365 147.041 154.218 146.473 154.7C136.412 163.236 124.168 168.813 111.105 170.793C97.5977 172.841 83.7863 170.958 71.3204 165.368C58.8546 159.778 48.2614 150.718 40.8061 139.269C33.3509 127.821 29.3487 114.469 29.2776 100.807C29.2066 87.1456 33.0696 73.7523 40.4054 62.227C47.7412 50.7018 58.2396 41.5319 70.6466 35.8125C83.0536 30.0932 96.8447 28.0662 110.373 29.9737C123.455 31.8184 135.757 37.2672 145.906 45.6978C146.479 46.1739 146.541 47.0267 146.054 47.5907C145.567 48.1547 144.716 48.2161 144.143 47.7405C134.386 39.6481 122.566 34.4175 109.996 32.6452C96.9809 30.81 83.7127 32.7601 71.776 38.2626C59.8394 43.7651 49.7391 52.5874 42.6814 63.6757C35.6237 74.764 31.9071 87.6495 31.9755 100.793C32.0438 113.937 35.8943 126.783 43.0669 137.797C50.2395 148.812 60.4311 157.528 72.4243 162.906C84.4175 168.284 97.7054 170.096 110.701 168.126C123.251 166.223 135.016 160.87 144.689 152.676C145.257 152.195 146.109 152.247 146.601 152.806Z" fill="#2F2727"/>
<rect x="119.544" y="59.7324" width="127.256" height="81.624" rx="6.42708" fill="#458DFC"/>
<path d="M150.096 105.764C149.181 105.764 148.341 105.549 147.576 105.12C146.81 104.69 146.204 104.098 145.756 103.342C145.308 102.576 145.084 101.713 145.084 100.752C145.084 99.7995 145.308 98.9455 145.756 98.1895C146.204 97.4242 146.81 96.8269 147.576 96.3975C148.341 95.9682 149.181 95.7535 150.096 95.7535C151.02 95.7535 151.86 95.9682 152.616 96.3975C153.381 96.8269 153.983 97.4242 154.422 98.1895C154.87 98.9455 155.094 99.7995 155.094 100.752C155.094 101.713 154.87 102.576 154.422 103.342C153.983 104.098 153.381 104.69 152.616 105.12C151.85 105.549 151.01 105.764 150.096 105.764ZM150.096 104.014C150.684 104.014 151.202 103.883 151.65 103.622C152.098 103.351 152.448 102.968 152.7 102.474C152.952 101.979 153.078 101.405 153.078 100.752C153.078 100.098 152.952 99.5289 152.7 99.0435C152.448 98.5489 152.098 98.1709 151.65 97.9095C151.202 97.6482 150.684 97.5175 150.096 97.5175C149.508 97.5175 148.985 97.6482 148.528 97.9095C148.08 98.1709 147.73 98.5489 147.478 99.0435C147.226 99.5289 147.1 100.098 147.1 100.752C147.1 101.405 147.226 101.979 147.478 102.474C147.73 102.968 148.08 103.351 148.528 103.622C148.985 103.883 149.508 104.014 150.096 104.014ZM163.874 97.9095V105.666H161.9V104.686C161.648 105.022 161.317 105.288 160.906 105.484C160.505 105.67 160.066 105.764 159.59 105.764C158.983 105.764 158.447 105.638 157.98 105.386C157.513 105.124 157.145 104.746 156.874 104.252C156.613 103.748 156.482 103.15 156.482 102.46V97.9095H158.442V102.18C158.442 102.796 158.596 103.272 158.904 103.608C159.212 103.934 159.632 104.098 160.164 104.098C160.705 104.098 161.13 103.934 161.438 103.608C161.746 103.272 161.9 102.796 161.9 102.18V97.9095H163.874ZM167.768 99.1135C168.02 98.7029 168.347 98.3809 168.748 98.1475C169.159 97.9142 169.625 97.7975 170.148 97.7975V99.8555H169.63C169.014 99.8555 168.547 100 168.23 100.29C167.922 100.579 167.768 101.083 167.768 101.802V105.666H165.808V97.9095H167.768V99.1135ZM183.582 95.8935L179.998 105.666H177.618L174.034 95.8935H176.134L178.822 103.664L181.496 95.8935H183.582ZM185.751 96.9855C185.406 96.9855 185.116 96.8782 184.883 96.6635C184.659 96.4395 184.547 96.1642 184.547 95.8375C184.547 95.5109 184.659 95.2402 184.883 95.0255C185.116 94.8015 185.406 94.6895 185.751 94.6895C186.096 94.6895 186.381 94.8015 186.605 95.0255C186.838 95.2402 186.955 95.5109 186.955 95.8375C186.955 96.1642 186.838 96.4395 186.605 96.6635C186.381 96.8782 186.096 96.9855 185.751 96.9855ZM186.717 97.9095V105.666H184.757V97.9095H186.717ZM191.622 105.792C190.987 105.792 190.418 105.68 189.914 105.456C189.41 105.222 189.008 104.91 188.71 104.518C188.42 104.126 188.262 103.692 188.234 103.216H190.208C190.245 103.514 190.39 103.762 190.642 103.958C190.903 104.154 191.225 104.252 191.608 104.252C191.981 104.252 192.27 104.177 192.476 104.028C192.69 103.878 192.798 103.687 192.798 103.454C192.798 103.202 192.667 103.015 192.406 102.894C192.154 102.763 191.748 102.623 191.188 102.474C190.609 102.334 190.133 102.189 189.76 102.04C189.396 101.89 189.078 101.662 188.808 101.354C188.546 101.046 188.416 100.63 188.416 100.108C188.416 99.6782 188.537 99.2862 188.78 98.9315C189.032 98.5769 189.386 98.2969 189.844 98.0915C190.31 97.8862 190.856 97.7835 191.482 97.7835C192.406 97.7835 193.143 98.0169 193.694 98.4835C194.244 98.9409 194.548 99.5615 194.604 100.346H192.728C192.7 100.038 192.569 99.7949 192.336 99.6175C192.112 99.4309 191.808 99.3375 191.426 99.3375C191.071 99.3375 190.796 99.4029 190.6 99.5335C190.413 99.6642 190.32 99.8462 190.32 100.08C190.32 100.341 190.45 100.542 190.712 100.682C190.973 100.812 191.379 100.948 191.93 101.088C192.49 101.228 192.952 101.372 193.316 101.522C193.68 101.671 193.992 101.904 194.254 102.222C194.524 102.53 194.664 102.94 194.674 103.454C194.674 103.902 194.548 104.303 194.296 104.658C194.053 105.012 193.698 105.292 193.232 105.498C192.774 105.694 192.238 105.792 191.622 105.792ZM197.276 96.9855C196.931 96.9855 196.642 96.8782 196.408 96.6635C196.184 96.4395 196.072 96.1642 196.072 95.8375C196.072 95.5109 196.184 95.2402 196.408 95.0255C196.642 94.8015 196.931 94.6895 197.276 94.6895C197.622 94.6895 197.906 94.8015 198.13 95.0255C198.364 95.2402 198.48 95.5109 198.48 95.8375C198.48 96.1642 198.364 96.4395 198.13 96.6635C197.906 96.8782 197.622 96.9855 197.276 96.9855ZM198.242 97.9095V105.666H196.282V97.9095H198.242ZM203.623 105.792C202.876 105.792 202.204 105.628 201.607 105.302C201.01 104.966 200.538 104.494 200.193 103.888C199.857 103.281 199.689 102.581 199.689 101.788C199.689 100.994 199.862 100.294 200.207 99.6875C200.562 99.0809 201.042 98.6142 201.649 98.2875C202.256 97.9515 202.932 97.7835 203.679 97.7835C204.426 97.7835 205.102 97.9515 205.709 98.2875C206.316 98.6142 206.792 99.0809 207.137 99.6875C207.492 100.294 207.669 100.994 207.669 101.788C207.669 102.581 207.487 103.281 207.123 103.888C206.768 104.494 206.283 104.966 205.667 105.302C205.06 105.628 204.379 105.792 203.623 105.792ZM203.623 104.084C203.978 104.084 204.309 104 204.617 103.832C204.934 103.654 205.186 103.393 205.373 103.048C205.56 102.702 205.653 102.282 205.653 101.788C205.653 101.05 205.457 100.486 205.065 100.094C204.682 99.6922 204.211 99.4915 203.651 99.4915C203.091 99.4915 202.62 99.6922 202.237 100.094C201.864 100.486 201.677 101.05 201.677 101.788C201.677 102.525 201.859 103.094 202.223 103.496C202.596 103.888 203.063 104.084 203.623 104.084ZM213.405 97.7975C214.329 97.7975 215.075 98.0915 215.645 98.6795C216.214 99.2582 216.499 100.07 216.499 101.116V105.666H214.539V101.382C214.539 100.766 214.385 100.294 214.077 99.9675C213.769 99.6315 213.349 99.4635 212.817 99.4635C212.275 99.4635 211.846 99.6315 211.529 99.9675C211.221 100.294 211.067 100.766 211.067 101.382V105.666H209.107V97.9095H211.067V98.8755C211.328 98.5395 211.659 98.2782 212.061 98.0915C212.471 97.8955 212.919 97.7975 213.405 97.7975Z" fill="white"/>
<g clip-path="url(#clip0_1_1434)">
<path d="M78.0963 85.6193C77.6912 85.5218 77.285 85.7707 77.1876 86.175C77.0901 86.5794 77.3389 86.9862 77.7433 87.0837C83.8479 88.5553 88.1113 93.9747 88.1113 100.263C88.1113 107.738 82.0297 113.82 74.5543 113.82C67.0788 113.82 60.9972 107.738 60.9972 100.263C60.9972 93.9749 65.2604 88.5555 71.3647 87.0838C71.7691 86.9862 72.0179 86.5794 71.9204 86.1751C71.8229 85.7707 71.4159 85.5221 71.0117 85.6194C67.7821 86.3981 64.8561 88.265 62.7728 90.8761C60.6257 93.5671 59.4908 96.8129 59.4908 100.263C59.4908 108.569 66.2483 115.326 74.5543 115.326C82.8602 115.326 89.6177 108.569 89.6177 100.263C89.6177 96.8129 88.4828 93.567 86.3356 90.8759C84.2522 88.2648 81.326 86.3979 78.0963 85.6193Z" fill="#2F2727"/>
<path d="M93.3812 98.4511L92.5001 96.8071L92.647 94.7748C92.7883 93.4721 92.2687 92.2008 91.2552 91.3717L89.7926 90.174L89.2172 88.4408C88.895 87.1156 87.8885 86.0504 86.5827 85.656L84.7773 85.1106L83.3946 83.5123C82.5765 82.55 81.3382 82.0494 80.082 82.1729L78.2081 82.3596L76.3661 81.4355C75.2309 80.8304 73.8775 80.8298 72.7421 81.4355L71.0983 82.3165L69.066 82.1695C67.7628 82.0282 66.4919 82.5479 65.6629 83.5613L64.4651 85.0239L62.732 85.5993C61.4067 85.9215 60.3416 86.928 59.9471 88.2337L59.4017 90.0392L57.8035 91.4219C56.8413 92.24 56.3404 93.4781 56.464 94.7345L56.6507 96.6084L55.7266 98.4504C55.1214 99.5857 55.1209 100.939 55.7265 102.074L56.6076 103.718L56.4606 105.751C56.3194 107.053 56.839 108.325 57.8524 109.154L59.3151 110.351L59.8904 112.085C60.2125 113.41 61.219 114.475 62.5249 114.869L64.3303 115.415L65.713 117.013C66.5312 117.975 67.7689 118.476 69.0256 118.353L70.8994 118.166L72.7413 119.09C73.3091 119.393 73.9315 119.544 74.554 119.544C75.1759 119.544 75.7979 119.393 76.3654 119.09L78.0094 118.209L80.0416 118.356C81.3442 118.497 82.6156 117.978 83.4448 116.964L84.6425 115.502L86.3758 114.926C87.7009 114.604 88.766 113.598 89.1604 112.292L89.7059 110.486L91.3042 109.104C92.2664 108.286 92.7673 107.048 92.6437 105.791L92.4569 103.917L93.3809 102.075C93.9861 100.94 93.9868 99.5865 93.3812 98.4511ZM92.0485 101.372C92.0452 101.379 92.0419 101.385 92.0388 101.391L91.0126 103.437C90.9486 103.564 90.9222 103.707 90.9363 103.849L91.1447 105.939C91.2198 106.704 90.9147 107.458 90.3236 107.96L88.5553 109.49C88.4474 109.583 88.3683 109.705 88.3271 109.842L87.7185 111.856C87.4759 112.659 86.8168 113.277 85.9985 113.468C85.9761 113.473 85.954 113.479 85.9322 113.486L83.9608 114.141C83.8255 114.186 83.7057 114.268 83.6154 114.378L82.2792 116.01C81.7717 116.63 80.9921 116.947 80.1944 116.857C80.1844 116.856 80.1744 116.855 80.1646 116.855L77.9004 116.691C77.7578 116.681 77.6159 116.711 77.4903 116.778L75.6552 117.762C74.9632 118.131 74.1367 118.129 73.4442 117.757C73.438 117.754 73.4318 117.751 73.4256 117.748L71.3797 116.722C71.2746 116.669 71.1589 116.642 71.042 116.642C71.0171 116.642 70.9922 116.643 70.9673 116.645L68.8772 116.854C68.1131 116.929 67.3591 116.624 66.8564 116.033L65.3266 114.264C65.2333 114.156 65.1113 114.077 64.9748 114.036L62.9604 113.428C62.1571 113.185 61.5397 112.526 61.3489 111.707C61.3437 111.685 61.3375 111.663 61.3302 111.641L60.676 109.67C60.6311 109.534 60.5487 109.415 60.4383 109.324L58.8066 107.988C58.1863 107.481 57.8695 106.701 57.9593 105.903C57.9604 105.893 57.9613 105.883 57.9621 105.873L58.1258 103.609C58.1361 103.467 58.1058 103.325 58.0384 103.199L57.0549 101.364C56.6858 100.672 56.6874 99.8457 57.0591 99.1531C57.0624 99.147 57.0656 99.1408 57.0686 99.1347L58.0949 97.0887C58.1589 96.9612 58.1853 96.8182 58.1711 96.6763L57.9629 94.5861C57.8877 93.8219 58.1928 93.068 58.784 92.5653L60.5523 91.0354C60.6601 90.9421 60.7392 90.8202 60.7805 90.6837L61.3891 88.6693C61.6317 87.8661 62.2908 87.2487 63.1092 87.0578C63.1315 87.0526 63.1536 87.0464 63.1754 87.0391L65.1467 86.3848C65.2821 86.3399 65.4018 86.2575 65.4921 86.1471L66.8284 84.5153C67.3359 83.8951 68.1155 83.5785 68.9132 83.6681C68.9231 83.6692 68.933 83.6701 68.943 83.6709L71.2072 83.8346C71.349 83.8447 71.4916 83.8146 71.6173 83.7472L73.4522 82.7637C74.1442 82.3947 74.9708 82.3962 75.6632 82.768C75.6693 82.7712 75.6755 82.7744 75.6818 82.7775L77.7277 83.8038C77.8552 83.8677 77.9982 83.8943 78.1401 83.88L80.2302 83.6718C80.9944 83.5965 81.7484 83.9017 82.2511 84.4929L83.7809 86.2612C83.8741 86.369 83.9962 86.4481 84.1327 86.4894L86.1471 87.0979C86.9503 87.3405 87.5677 87.9997 87.7586 88.818C87.7637 88.8404 87.77 88.8625 87.7772 88.8843L88.4316 90.8556C88.4766 90.9909 88.5589 91.1107 88.6692 91.201L90.301 92.5372C90.9213 93.0447 91.2381 93.824 91.1483 94.622C91.1471 94.6319 91.1462 94.6419 91.1456 94.6519L90.9818 96.9161C90.9715 97.0583 91.0019 97.2005 91.0691 97.3262L92.0527 99.1612C92.4218 99.8533 92.4202 100.68 92.0485 101.372Z" fill="#2F2727"/>
<path d="M71.286 96.159C71.1652 95.9045 70.9064 95.728 70.6059 95.728H66.6264C66.2104 95.728 65.8732 96.0652 65.8732 96.4812V107.882C65.8732 108.298 66.2104 108.635 66.6264 108.635H70.6059C70.9181 108.635 71.1859 108.445 71.3001 108.174C71.8742 108.255 72.4657 108.418 73.0815 108.589C74.0072 108.845 74.9645 109.11 75.959 109.11H80.307C81.6511 109.11 82.7403 108.397 83.2206 107.204C83.4545 106.622 83.4955 106.019 83.3588 105.513C83.6088 105.288 83.8202 105.009 83.98 104.682C84.3039 104.02 84.3686 103.275 84.185 102.648C84.5272 102.317 84.7826 101.88 84.916 101.366C85.0408 100.884 85.0386 100.41 84.9276 99.9981C85.607 99.5985 86.0645 98.8724 86.0645 98.0543C86.0645 97.4127 85.8147 96.8214 85.361 96.3896C84.9254 95.9749 84.3451 95.7464 83.7272 95.7464L77.5986 95.7466C77.133 95.1625 76.9881 94.3699 77.2532 93.7319C77.7973 92.4224 77.7635 91.314 77.1441 90.138C76.6842 89.2651 75.4476 88.3961 74.4083 88.5445C73.7801 88.6343 73.3256 89.0782 73.1922 89.7323C73.153 89.9247 73.1422 90.1326 73.1298 90.3733C73.0991 90.9671 73.0569 91.7804 72.5443 92.7625C72.1969 93.4282 72.0809 94.1129 71.9787 94.717C71.8322 95.5824 71.7611 95.9993 71.286 96.159ZM67.3796 97.2343H69.8528V107.128H67.3796V97.2343ZM73.4639 94.9684C73.5517 94.4502 73.6423 93.9142 73.8797 93.4595C74.5443 92.1864 74.6005 91.1002 74.6342 90.4513C74.6432 90.2784 74.6516 90.1151 74.6683 90.033C74.6684 90.0325 74.6685 90.0319 74.6687 90.0314C74.93 90.035 75.5729 90.3877 75.8113 90.8402C76.2239 91.6232 76.2376 92.2504 75.8622 93.154C75.5237 93.9688 75.5491 94.9143 75.884 95.7549C75.5176 95.8059 75.2353 96.1196 75.2353 96.5C75.2353 96.9159 75.5726 97.2532 75.9885 97.2532L83.7272 97.2529C83.9567 97.2529 84.1681 97.3338 84.3224 97.4807C84.43 97.5831 84.5582 97.7658 84.5582 98.0544C84.5582 98.4584 84.1879 98.8077 83.7494 98.8173L81.8109 98.8595C81.395 98.8685 81.0652 99.2129 81.0743 99.6288C81.0832 100.039 81.4185 100.366 81.827 100.366C81.8325 100.366 81.838 100.366 81.8437 100.365L83.4582 100.33C83.5108 100.48 83.5382 100.764 83.4274 101.09C83.333 101.368 83.0797 101.833 82.4425 101.833C82.0266 101.833 81.6894 102.17 81.6894 102.586C81.6894 103.002 82.0266 103.339 82.4425 103.339C82.5567 103.339 82.6688 103.332 82.7785 103.318C82.7878 103.531 82.744 103.781 82.627 104.02C82.4887 104.303 82.2154 104.64 81.6986 104.64C81.2827 104.64 80.9454 104.977 80.9454 105.393C80.9454 105.809 81.2827 106.146 81.6986 106.146C81.7765 106.146 81.8536 106.142 81.9298 106.136C81.9278 106.28 81.8984 106.461 81.8163 106.658C81.6982 106.943 81.3146 107.604 80.3071 107.604H75.9592C75.1693 107.604 74.3505 107.377 73.4836 107.137C72.7937 106.946 72.0864 106.75 71.3593 106.663V97.6834C73.0549 97.3761 73.2887 96.0034 73.4639 94.9684Z" fill="#2F2727"/>
<path d="M74.5549 86.7056C74.9709 86.7056 75.3081 86.3684 75.3081 85.9524C75.3081 85.5364 74.9709 85.1992 74.5549 85.1992H74.5544C74.1384 85.1992 73.8015 85.5364 73.8015 85.9524C73.8015 86.3684 74.1389 86.7056 74.5549 86.7056Z" fill="#2F2727"/>
</g>
<defs>
<clipPath id="clip0_1_1434">
<rect width="38.5625" height="38.5625" fill="white" transform="translate(55.273 80.9814)"/>
</clipPath>
</defs>
</svg>
