<svg width="247" height="202" viewBox="0 0 247 202" fill="none" xmlns="http://www.w3.org/2000/svg">
<path opacity="0.5" d="M146.601 153.554C147.094 154.113 147.041 154.967 146.473 155.449C136.412 163.984 124.168 169.561 111.105 171.542C97.5977 173.59 83.7863 171.706 71.3204 166.116C58.8546 160.526 48.2614 151.466 40.8061 140.018C33.3509 128.569 29.3487 115.217 29.2776 101.555C29.2066 87.8939 33.0696 74.5006 40.4054 62.9753C47.7412 51.4501 58.2396 42.2802 70.6466 36.5608C83.0536 30.8415 96.8447 28.8145 110.373 30.722C123.455 32.5667 135.757 38.0155 145.906 46.4461C146.479 46.9221 146.541 47.775 146.054 48.339C145.567 48.903 144.716 48.9644 144.143 48.4888C134.386 40.3964 122.566 35.1658 109.996 33.3935C96.9809 31.5583 83.7127 33.5084 71.776 39.0109C59.8394 44.5134 49.7391 53.3357 42.6814 64.424C35.6237 75.5123 31.9071 88.3978 31.9755 101.541C32.0438 114.685 35.8943 127.531 43.0669 138.546C50.2395 149.56 60.4311 158.277 72.4243 163.655C84.4175 169.033 97.7054 170.845 110.701 168.874C123.251 166.971 135.016 161.618 144.689 153.425C145.257 152.943 146.109 152.996 146.601 153.554Z" fill="#2F2727"/>
<rect x="119.652" y="60.4807" width="127.256" height="81.624" rx="6.42708" fill="#458DFC"/>
<path d="M140.882 101.514C140.882 100.552 141.097 99.6938 141.526 98.9378C141.965 98.1725 142.557 97.5798 143.304 97.1598C144.06 96.7305 144.905 96.5158 145.838 96.5158C146.93 96.5158 147.887 96.7958 148.708 97.3558C149.529 97.9158 150.103 98.6905 150.43 99.6798H148.176C147.952 99.2132 147.635 98.8632 147.224 98.6298C146.823 98.3965 146.356 98.2798 145.824 98.2798C145.255 98.2798 144.746 98.4152 144.298 98.6858C143.859 98.9472 143.514 99.3205 143.262 99.8058C143.019 100.291 142.898 100.86 142.898 101.514C142.898 102.158 143.019 102.727 143.262 103.222C143.514 103.707 143.859 104.085 144.298 104.356C144.746 104.617 145.255 104.748 145.824 104.748C146.356 104.748 146.823 104.631 147.224 104.398C147.635 104.155 147.952 103.8 148.176 103.334H150.43C150.103 104.332 149.529 105.112 148.708 105.672C147.896 106.222 146.939 106.498 145.838 106.498C144.905 106.498 144.06 106.288 143.304 105.868C142.557 105.438 141.965 104.846 141.526 104.09C141.097 103.334 140.882 102.475 140.882 101.514ZM155.548 106.54C154.801 106.54 154.129 106.376 153.532 106.05C152.935 105.714 152.463 105.242 152.118 104.636C151.782 104.029 151.614 103.329 151.614 102.536C151.614 101.742 151.787 101.042 152.132 100.436C152.487 99.8292 152.967 99.3625 153.574 99.0358C154.181 98.6998 154.857 98.5318 155.604 98.5318C156.351 98.5318 157.027 98.6998 157.634 99.0358C158.241 99.3625 158.717 99.8292 159.062 100.436C159.417 101.042 159.594 101.742 159.594 102.536C159.594 103.329 159.412 104.029 159.048 104.636C158.693 105.242 158.208 105.714 157.592 106.05C156.985 106.376 156.304 106.54 155.548 106.54ZM155.548 104.832C155.903 104.832 156.234 104.748 156.542 104.58C156.859 104.402 157.111 104.141 157.298 103.796C157.485 103.45 157.578 103.03 157.578 102.536C157.578 101.798 157.382 101.234 156.99 100.842C156.607 100.44 156.136 100.24 155.576 100.24C155.016 100.24 154.545 100.44 154.162 100.842C153.789 101.234 153.602 101.798 153.602 102.536C153.602 103.273 153.784 103.842 154.148 104.244C154.521 104.636 154.988 104.832 155.548 104.832ZM162.992 99.8618C163.244 99.4512 163.571 99.1292 163.972 98.8958C164.383 98.6625 164.849 98.5458 165.372 98.5458V100.604H164.854C164.238 100.604 163.771 100.748 163.454 101.038C163.146 101.327 162.992 101.831 162.992 102.55V106.414H161.032V98.6578H162.992V99.8618ZM173.902 102.368C173.902 102.648 173.883 102.9 173.846 103.124H168.176C168.223 103.684 168.419 104.122 168.764 104.44C169.109 104.757 169.534 104.916 170.038 104.916C170.766 104.916 171.284 104.603 171.592 103.978H173.706C173.482 104.724 173.053 105.34 172.418 105.826C171.783 106.302 171.004 106.54 170.08 106.54C169.333 106.54 168.661 106.376 168.064 106.05C167.476 105.714 167.014 105.242 166.678 104.636C166.351 104.029 166.188 103.329 166.188 102.536C166.188 101.733 166.351 101.028 166.678 100.422C167.005 99.8152 167.462 99.3485 168.05 99.0218C168.638 98.6952 169.315 98.5318 170.08 98.5318C170.817 98.5318 171.475 98.6905 172.054 99.0078C172.642 99.3252 173.095 99.7778 173.412 100.366C173.739 100.944 173.902 101.612 173.902 102.368ZM171.872 101.808C171.863 101.304 171.681 100.902 171.326 100.604C170.971 100.296 170.537 100.142 170.024 100.142C169.539 100.142 169.128 100.291 168.792 100.59C168.465 100.879 168.265 101.285 168.19 101.808H171.872ZM187.447 96.6418L183.863 106.414H181.483L177.899 96.6418H179.999L182.687 104.412L185.361 96.6418H187.447ZM188.118 102.508C188.118 101.724 188.272 101.028 188.58 100.422C188.897 99.8152 189.322 99.3485 189.854 99.0218C190.395 98.6952 190.997 98.5318 191.66 98.5318C192.238 98.5318 192.742 98.6485 193.172 98.8818C193.61 99.1152 193.96 99.4092 194.222 99.7638V98.6578H196.196V106.414H194.222V105.28C193.97 105.644 193.62 105.947 193.172 106.19C192.733 106.423 192.224 106.54 191.646 106.54C190.992 106.54 190.395 106.372 189.854 106.036C189.322 105.7 188.897 105.228 188.58 104.622C188.272 104.006 188.118 103.301 188.118 102.508ZM194.222 102.536C194.222 102.06 194.128 101.654 193.942 101.318C193.755 100.972 193.503 100.711 193.186 100.534C192.868 100.347 192.528 100.254 192.164 100.254C191.8 100.254 191.464 100.342 191.156 100.52C190.848 100.697 190.596 100.958 190.4 101.304C190.213 101.64 190.12 102.041 190.12 102.508C190.12 102.974 190.213 103.385 190.4 103.74C190.596 104.085 190.848 104.351 191.156 104.538C191.473 104.724 191.809 104.818 192.164 104.818C192.528 104.818 192.868 104.729 193.186 104.552C193.503 104.365 193.755 104.104 193.942 103.768C194.128 103.422 194.222 103.012 194.222 102.536ZM200.07 96.0538V106.414H198.11V96.0538H200.07ZM209.328 98.6578V106.414H207.354V105.434C207.102 105.77 206.771 106.036 206.36 106.232C205.959 106.418 205.52 106.512 205.044 106.512C204.438 106.512 203.901 106.386 203.434 106.134C202.968 105.872 202.599 105.494 202.328 105C202.067 104.496 201.936 103.898 201.936 103.208V98.6578H203.896V102.928C203.896 103.544 204.05 104.02 204.358 104.356C204.666 104.682 205.086 104.846 205.618 104.846C206.16 104.846 206.584 104.682 206.892 104.356C207.2 104.02 207.354 103.544 207.354 102.928V98.6578H209.328ZM218.472 102.368C218.472 102.648 218.454 102.9 218.416 103.124H212.746C212.793 103.684 212.989 104.122 213.334 104.44C213.68 104.757 214.104 104.916 214.608 104.916C215.336 104.916 215.854 104.603 216.162 103.978H218.276C218.052 104.724 217.623 105.34 216.988 105.826C216.354 106.302 215.574 106.54 214.65 106.54C213.904 106.54 213.232 106.376 212.634 106.05C212.046 105.714 211.584 105.242 211.248 104.636C210.922 104.029 210.758 103.329 210.758 102.536C210.758 101.733 210.922 101.028 211.248 100.422C211.575 99.8152 212.032 99.3485 212.62 99.0218C213.208 98.6952 213.885 98.5318 214.65 98.5318C215.388 98.5318 216.046 98.6905 216.624 99.0078C217.212 99.3252 217.665 99.7778 217.982 100.366C218.309 100.944 218.472 101.612 218.472 102.368ZM216.442 101.808C216.433 101.304 216.251 100.902 215.896 100.604C215.542 100.296 215.108 100.142 214.594 100.142C214.109 100.142 213.698 100.291 213.362 100.59C213.036 100.879 212.835 101.285 212.76 101.808H216.442ZM222.871 106.54C222.236 106.54 221.667 106.428 221.163 106.204C220.659 105.97 220.258 105.658 219.959 105.266C219.67 104.874 219.511 104.44 219.483 103.964H221.457C221.494 104.262 221.639 104.51 221.891 104.706C222.152 104.902 222.474 105 222.857 105C223.23 105 223.52 104.925 223.725 104.776C223.94 104.626 224.047 104.435 224.047 104.202C224.047 103.95 223.916 103.763 223.655 103.642C223.403 103.511 222.997 103.371 222.437 103.222C221.858 103.082 221.382 102.937 221.009 102.788C220.645 102.638 220.328 102.41 220.057 102.102C219.796 101.794 219.665 101.378 219.665 100.856C219.665 100.426 219.786 100.034 220.029 99.6798C220.281 99.3252 220.636 99.0452 221.093 98.8398C221.56 98.6345 222.106 98.5318 222.731 98.5318C223.655 98.5318 224.392 98.7652 224.943 99.2318C225.494 99.6892 225.797 100.31 225.853 101.094H223.977C223.949 100.786 223.818 100.543 223.585 100.366C223.361 100.179 223.058 100.086 222.675 100.086C222.32 100.086 222.045 100.151 221.849 100.282C221.662 100.412 221.569 100.594 221.569 100.828C221.569 101.089 221.7 101.29 221.961 101.43C222.222 101.56 222.628 101.696 223.179 101.836C223.739 101.976 224.201 102.12 224.565 102.27C224.929 102.419 225.242 102.652 225.503 102.97C225.774 103.278 225.914 103.688 225.923 104.202C225.923 104.65 225.797 105.051 225.545 105.406C225.302 105.76 224.948 106.04 224.481 106.246C224.024 106.442 223.487 106.54 222.871 106.54Z" fill="white"/>
<g clip-path="url(#clip0_1_1445)">
<path d="M74.341 118.66C64.5963 118.66 56.667 110.731 56.667 100.987C56.667 91.2418 64.5963 83.3125 74.341 83.3125C77.7296 83.3125 81.0264 84.2781 83.8751 86.1065C84.4344 86.4666 84.5983 87.2121 84.2382 87.7729C83.8769 88.3336 83.1329 88.4957 82.5721 88.1359C80.1138 86.5563 77.2668 85.7226 74.341 85.7226C65.9249 85.7226 59.0771 92.5704 59.0771 100.987C59.0771 109.402 65.9249 116.25 74.341 116.25C82.7569 116.25 89.6047 109.402 89.6047 100.987C89.6047 100.483 89.5805 99.9854 89.5341 99.4955C89.4699 98.8318 89.9551 98.2437 90.617 98.1796C91.2822 98.1184 91.8685 98.6006 91.933 99.2625C91.9874 99.8297 92.0148 100.405 92.0148 100.987C92.0148 110.731 84.0858 118.66 74.341 118.66Z" fill="#2F2727"/>
<path d="M76.3494 105.003C76.041 105.003 75.7324 104.886 75.498 104.65L68.2677 97.4196C67.797 96.9486 67.797 96.1855 68.2677 95.7147C68.7384 95.244 69.5016 95.244 69.9723 95.7147L76.3511 102.094L93.1717 85.2727C93.6427 84.802 94.4059 84.802 94.8766 85.2727C95.3473 85.7434 95.3473 86.5066 94.8766 86.9773L77.2025 104.651C76.9663 104.886 76.658 105.003 76.3494 105.003Z" fill="#2F2727"/>
</g>
<defs>
<clipPath id="clip0_1_1445">
<rect width="38.5625" height="38.5625" fill="white" transform="translate(56.6671 81.7297)"/>
</clipPath>
</defs>
</svg>
