<svg width="247" height="202" viewBox="0 0 247 202" fill="none" xmlns="http://www.w3.org/2000/svg">
<g clip-path="url(#clip0_1_1411)">
<path d="M58.8685 101.534C58.8588 101.485 58.8444 101.438 58.8256 101.393C58.8068 101.348 58.7834 101.304 58.7563 101.263C58.7292 101.222 58.6976 101.183 58.6629 101.149C58.6283 101.113 58.5891 101.083 58.5484 101.055C58.507 101.028 58.4633 101.004 58.4181 100.985C58.373 100.967 58.3255 100.952 58.2773 100.942C58.1801 100.923 58.08 100.923 57.9828 100.942C57.9346 100.952 57.8872 100.967 57.842 100.985C57.7968 101.004 57.7531 101.028 57.7117 101.055C57.671 101.083 57.6326 101.113 57.5972 101.149C57.5625 101.183 57.5317 101.222 57.5038 101.263C57.4767 101.304 57.4533 101.348 57.4345 101.393C57.4157 101.439 57.4014 101.485 57.3916 101.534C57.3818 101.583 57.3773 101.632 57.3773 101.681C57.3773 101.73 57.3817 101.78 57.3916 101.828C57.4014 101.876 57.4157 101.924 57.4345 101.969C57.4533 102.014 57.4767 102.059 57.5038 102.099C57.5317 102.141 57.5625 102.179 57.5972 102.214C57.6326 102.248 57.671 102.28 57.7117 102.307C57.753 102.334 57.7967 102.358 57.8419 102.376C57.8871 102.395 57.9345 102.41 57.9827 102.419C58.0317 102.429 58.0806 102.434 58.1304 102.434C58.1794 102.434 58.2283 102.429 58.2773 102.419C58.3255 102.41 58.373 102.395 58.4181 102.376C58.4633 102.358 58.507 102.334 58.5484 102.307C58.5891 102.28 58.6283 102.248 58.6629 102.214C58.6976 102.179 58.7292 102.141 58.7563 102.099C58.7834 102.059 58.8068 102.014 58.8256 101.969C58.8444 101.924 58.8588 101.876 58.8685 101.828C58.8783 101.78 58.8836 101.73 58.8836 101.681C58.8836 101.632 58.8783 101.583 58.8685 101.534Z" fill="#2F2727"/>
<path d="M83.1097 90.863C83.0999 90.8155 83.0855 90.7681 83.0667 90.7221C83.0479 90.677 83.0245 90.6333 82.9974 90.5926C82.9696 90.5512 82.9387 90.5128 82.9033 90.4781C82.8686 90.4435 82.8302 90.4118 82.7888 90.3847C82.7481 90.3576 82.7044 90.3343 82.6593 90.3154C82.6141 90.2966 82.5666 90.2815 82.5184 90.2725C82.4213 90.2529 82.3211 90.2529 82.2239 90.2725C82.1757 90.2815 82.1283 90.2966 82.0831 90.3154C82.0371 90.3343 81.9934 90.3576 81.9528 90.3847C81.9114 90.4118 81.8729 90.4435 81.8383 90.4781C81.8036 90.5128 81.772 90.5512 81.7449 90.5926C81.7178 90.6333 81.6944 90.677 81.6756 90.7221C81.6568 90.7681 81.6425 90.8155 81.6327 90.863C81.6229 90.9119 81.6176 90.9617 81.6176 91.0107C81.6176 91.0596 81.6229 91.1094 81.6327 91.1576C81.6425 91.2058 81.6568 91.2532 81.6756 91.2984C81.6944 91.3443 81.7178 91.388 81.7449 91.4287C81.772 91.4701 81.8036 91.5085 81.8383 91.5432C81.8729 91.5778 81.9114 91.6095 81.9528 91.6366C81.9934 91.6637 82.0371 91.687 82.0831 91.7059C82.1283 91.7247 82.1757 91.739 82.2239 91.7488C82.2721 91.7586 82.3218 91.7639 82.3708 91.7639C82.4205 91.7639 82.4695 91.7586 82.5184 91.7488C82.5666 91.739 82.6141 91.7247 82.6593 91.7059C82.7044 91.687 82.7481 91.6637 82.7888 91.6366C82.8302 91.6095 82.8686 91.5778 82.9033 91.5432C82.9387 91.5085 82.9696 91.4701 82.9974 91.4287C83.0245 91.388 83.0479 91.3443 83.0667 91.2984C83.0855 91.2532 83.0999 91.2058 83.1097 91.1576C83.1194 91.1094 83.124 91.0596 83.124 91.0107C83.124 90.9617 83.1194 90.912 83.1097 90.863Z" fill="#2F2727"/>
<path d="M75.5813 93.4521C71.344 93.4521 67.8969 96.8994 67.8969 101.137C67.8969 105.374 71.3441 108.821 75.5813 108.821C79.8184 108.821 83.2657 105.374 83.2657 101.137C83.2657 96.8993 79.8185 93.4521 75.5813 93.4521ZM75.5813 107.315C72.1746 107.315 69.4033 104.543 69.4033 101.137C69.4033 97.7299 72.1746 94.9586 75.5813 94.9586C78.9879 94.9586 81.7592 97.7299 81.7592 101.137C81.7592 104.543 78.9879 107.315 75.5813 107.315Z" fill="#2F2727"/>
<path d="M75.5808 96.4875C73.0173 96.4875 70.9318 98.5731 70.9318 101.137C70.9318 103.7 73.0173 105.786 75.5808 105.786C78.1443 105.786 80.2298 103.7 80.2298 101.137C80.2298 98.5731 78.1443 96.4875 75.5808 96.4875ZM75.5808 104.279C73.848 104.279 72.4382 102.869 72.4382 101.136C72.4382 99.4036 73.848 97.9939 75.5808 97.9939C77.3136 97.9939 78.7234 99.4037 78.7234 101.136C78.7234 102.869 77.3136 104.279 75.5808 104.279Z" fill="#2F2727"/>
<path d="M85.0846 92.3502C84.8021 92.0448 84.3256 92.0263 84.0202 92.3088C83.7149 92.5913 83.6964 93.0679 83.9789 93.3731C85.9421 95.4951 87.0233 98.2522 87.0233 101.137C87.0233 106.261 83.5555 110.78 78.6775 112.153C78.2663 110.834 77.0337 109.874 75.5811 109.874C74.1284 109.874 72.8959 110.834 72.4846 112.153C67.6061 110.78 64.1388 106.262 64.1388 101.137C64.1388 96.0196 67.6091 91.4939 72.4846 90.1202C72.8958 91.4392 74.1284 92.3994 75.581 92.3994C77.369 92.3994 78.8236 90.9448 78.8236 89.1568C78.8236 87.3688 77.369 85.9143 75.581 85.9143C73.9876 85.9143 72.6591 87.0696 72.3888 88.5864C69.7219 89.2665 67.3078 90.8055 65.5513 92.9551C63.669 95.2585 62.6324 98.1641 62.6324 101.137C62.6324 104.12 63.676 107.035 65.5711 109.342C67.3268 111.48 69.7319 113.009 72.3887 113.687C72.6589 115.204 73.9876 116.359 75.5809 116.359C77.1743 116.359 78.5029 115.204 78.7733 113.687C81.4315 113.009 83.838 111.479 85.5938 109.339C87.487 107.032 88.5296 104.119 88.5296 101.137C88.5296 97.8718 87.3061 94.7514 85.0846 92.3502ZM75.581 87.4207C76.5383 87.4207 77.3172 88.1995 77.3172 89.1569C77.3172 90.1142 76.5383 90.893 75.581 90.893C74.6237 90.893 73.8449 90.1142 73.8449 89.1569C73.8449 88.1996 74.6237 87.4207 75.581 87.4207ZM75.581 114.853C74.6237 114.853 73.8449 114.074 73.8449 113.117C73.8449 112.159 74.6237 111.38 75.581 111.38C76.5383 111.38 77.3172 112.159 77.3172 113.117C77.3172 114.074 76.5384 114.853 75.581 114.853Z" fill="#2F2727"/>
<path d="M93.3197 105.274C93.6345 103.923 93.7939 102.534 93.7939 101.136C93.7939 91.0939 85.6236 82.9236 75.581 82.9236C69.4526 82.9236 63.7782 85.9809 60.3852 91.1062C58.8545 90.693 57.2079 91.4582 56.5636 92.9562C55.8571 94.5987 56.6186 96.5097 58.261 97.2161C58.6774 97.3952 59.1108 97.4799 59.5378 97.4799C60.7948 97.4799 61.9935 96.7448 62.521 95.5187C63.0833 94.2113 62.7155 92.7339 61.7138 91.8291C64.8352 87.192 70.0034 84.4299 75.5811 84.4299C84.793 84.4299 92.2875 91.9244 92.2875 101.136C92.2875 102.375 92.1513 103.605 91.8822 104.803C90.5339 104.695 89.2046 105.444 88.6412 106.754C88.0788 108.062 88.4466 109.539 89.4486 110.444C86.3281 115.09 81.1923 117.843 75.581 117.843C67.6138 117.843 60.7189 112.172 59.1863 104.359C59.1062 103.95 58.7107 103.684 58.3022 103.765C57.8941 103.845 57.628 104.24 57.7081 104.649C59.379 113.167 66.8955 119.349 75.5809 119.349C78.7396 119.349 81.8537 118.524 84.5867 116.963C87.0686 115.546 89.1985 113.549 90.7767 111.167C91.0546 111.242 91.3362 111.278 91.6152 111.278C92.8722 111.278 94.0709 110.543 94.5983 109.317C95.2418 107.821 94.6678 106.103 93.3197 105.274ZM61.1372 94.9235C60.7588 95.8029 59.7355 96.2105 58.8562 95.8323C57.9769 95.4541 57.5691 94.4308 57.9475 93.5514C58.2298 92.8949 58.8716 92.5013 59.5447 92.5013C59.7732 92.5013 60.0054 92.5467 60.2283 92.6426C61.1077 93.0209 61.5154 94.0441 61.1372 94.9235ZM93.2147 108.721C92.8364 109.601 91.8132 110.009 90.9338 109.63H90.9339C90.0545 109.252 89.6467 108.229 90.0251 107.349C90.4034 106.47 91.4266 106.062 92.3059 106.441C93.1852 106.819 93.5929 107.842 93.2147 108.721Z" fill="#2F2727"/>
</g>
<path opacity="0.5" d="M146.601 153.68C147.094 154.239 147.041 155.092 146.473 155.574C136.412 164.11 124.168 169.687 111.105 171.667C97.5977 173.715 83.7863 171.832 71.3204 166.242C58.8546 160.652 48.2614 151.592 40.8061 140.144C33.3509 128.695 29.3487 115.343 29.2776 101.681C29.2066 88.0196 33.0696 74.6263 40.4054 63.1011C47.7412 51.5758 58.2396 42.4059 70.6466 36.6866C83.0536 30.9672 96.8447 28.9402 110.373 30.8477C123.455 32.6924 135.757 38.1412 145.906 46.5718C146.479 47.0479 146.541 47.9008 146.054 48.4647C145.567 49.0287 144.716 49.0901 144.143 48.6145C134.386 40.5221 122.566 35.2915 109.996 33.5192C96.9809 31.684 83.7127 33.6341 71.776 39.1367C59.8394 44.6392 49.7391 53.4614 42.6814 64.5497C35.6237 75.638 31.9071 88.5235 31.9755 101.667C32.0438 114.811 35.8943 127.657 43.0669 138.671C50.2395 149.686 60.4311 158.402 72.4243 163.78C84.4175 169.158 97.7054 170.97 110.701 169C123.251 167.097 135.016 161.744 144.689 153.55C145.257 153.069 146.109 153.121 146.601 153.68Z" fill="#2F2727"/>
<rect x="119.18" y="60.6064" width="127.256" height="81.624" rx="6.42708" fill="#458DFC"/>
<path d="M145.682 106.638C144.767 106.638 143.927 106.423 143.162 105.994C142.397 105.564 141.79 104.972 141.342 104.216C140.894 103.45 140.67 102.587 140.67 101.626C140.67 100.674 140.894 99.8196 141.342 99.0636C141.79 98.2982 142.397 97.7009 143.162 97.2715C143.927 96.8422 144.767 96.6276 145.682 96.6276C146.606 96.6276 147.446 96.8422 148.202 97.2715C148.967 97.7009 149.569 98.2982 150.008 99.0636C150.456 99.8196 150.68 100.674 150.68 101.626C150.68 102.587 150.456 103.45 150.008 104.216C149.569 104.972 148.967 105.564 148.202 105.994C147.437 106.423 146.597 106.638 145.682 106.638ZM145.682 104.888C146.27 104.888 146.788 104.757 147.236 104.496C147.684 104.225 148.034 103.842 148.286 103.348C148.538 102.853 148.664 102.279 148.664 101.626C148.664 100.972 148.538 100.403 148.286 99.9176C148.034 99.4229 147.684 99.0449 147.236 98.7836C146.788 98.5222 146.27 98.3916 145.682 98.3916C145.094 98.3916 144.571 98.5222 144.114 98.7836C143.666 99.0449 143.316 99.4229 143.064 99.9176C142.812 100.403 142.686 100.972 142.686 101.626C142.686 102.279 142.812 102.853 143.064 103.348C143.316 103.842 143.666 104.225 144.114 104.496C144.571 104.757 145.094 104.888 145.682 104.888ZM159.46 98.7836V106.54H157.486V105.56C157.234 105.896 156.903 106.162 156.492 106.358C156.091 106.544 155.652 106.638 155.176 106.638C154.57 106.638 154.033 106.512 153.566 106.26C153.1 105.998 152.731 105.62 152.46 105.126C152.199 104.622 152.068 104.024 152.068 103.334V98.7836H154.028V103.054C154.028 103.67 154.182 104.146 154.49 104.482C154.798 104.808 155.218 104.972 155.75 104.972C156.292 104.972 156.716 104.808 157.024 104.482C157.332 104.146 157.486 103.67 157.486 103.054V98.7836H159.46ZM163.354 99.9876C163.606 99.5769 163.933 99.2549 164.334 99.0216C164.745 98.7882 165.211 98.6716 165.734 98.6716V100.73H165.216C164.6 100.73 164.133 100.874 163.816 101.164C163.508 101.453 163.354 101.957 163.354 102.676V106.54H161.394V98.7836H163.354V99.9876ZM181.044 96.7676V106.54H179.084V100.184L176.466 106.54H174.982L172.35 100.184V106.54H170.39V96.7676H172.616L175.724 104.034L178.832 96.7676H181.044ZM183.976 97.8596C183.631 97.8596 183.341 97.7522 183.108 97.5376C182.884 97.3136 182.772 97.0382 182.772 96.7116C182.772 96.3849 182.884 96.1142 183.108 95.8996C183.341 95.6756 183.631 95.5636 183.976 95.5636C184.321 95.5636 184.606 95.6756 184.83 95.8996C185.063 96.1142 185.18 96.3849 185.18 96.7116C185.18 97.0382 185.063 97.3136 184.83 97.5376C184.606 97.7522 184.321 97.8596 183.976 97.8596ZM184.942 98.7836V106.54H182.982V98.7836H184.942ZM189.846 106.666C189.212 106.666 188.642 106.554 188.138 106.33C187.634 106.096 187.233 105.784 186.934 105.392C186.645 105 186.486 104.566 186.458 104.09H188.432C188.47 104.388 188.614 104.636 188.866 104.832C189.128 105.028 189.45 105.126 189.832 105.126C190.206 105.126 190.495 105.051 190.7 104.902C190.915 104.752 191.022 104.561 191.022 104.328C191.022 104.076 190.892 103.889 190.63 103.768C190.378 103.637 189.972 103.497 189.412 103.348C188.834 103.208 188.358 103.063 187.984 102.914C187.62 102.764 187.303 102.536 187.032 102.228C186.771 101.92 186.64 101.504 186.64 100.982C186.64 100.552 186.762 100.16 187.004 99.8056C187.256 99.4509 187.611 99.1709 188.068 98.9656C188.535 98.7602 189.081 98.6576 189.706 98.6576C190.63 98.6576 191.368 98.8909 191.918 99.3576C192.469 99.8149 192.772 100.436 192.828 101.22H190.952C190.924 100.912 190.794 100.669 190.56 100.492C190.336 100.305 190.033 100.212 189.65 100.212C189.296 100.212 189.02 100.277 188.824 100.408C188.638 100.538 188.544 100.72 188.544 100.954C188.544 101.215 188.675 101.416 188.936 101.556C189.198 101.686 189.604 101.822 190.154 101.962C190.714 102.102 191.176 102.246 191.54 102.396C191.904 102.545 192.217 102.778 192.478 103.096C192.749 103.404 192.889 103.814 192.898 104.328C192.898 104.776 192.772 105.177 192.52 105.532C192.278 105.886 191.923 106.166 191.456 106.372C190.999 106.568 190.462 106.666 189.846 106.666ZM197.475 106.666C196.841 106.666 196.271 106.554 195.767 106.33C195.263 106.096 194.862 105.784 194.563 105.392C194.274 105 194.115 104.566 194.087 104.09H196.061C196.099 104.388 196.243 104.636 196.495 104.832C196.757 105.028 197.079 105.126 197.461 105.126C197.835 105.126 198.124 105.051 198.329 104.902C198.544 104.752 198.651 104.561 198.651 104.328C198.651 104.076 198.521 103.889 198.259 103.768C198.007 103.637 197.601 103.497 197.041 103.348C196.463 103.208 195.987 103.063 195.613 102.914C195.249 102.764 194.932 102.536 194.661 102.228C194.4 101.92 194.269 101.504 194.269 100.982C194.269 100.552 194.391 100.16 194.633 99.8056C194.885 99.4509 195.24 99.1709 195.697 98.9656C196.164 98.7602 196.71 98.6576 197.335 98.6576C198.259 98.6576 198.997 98.8909 199.547 99.3576C200.098 99.8149 200.401 100.436 200.457 101.22H198.581C198.553 100.912 198.423 100.669 198.189 100.492C197.965 100.305 197.662 100.212 197.279 100.212C196.925 100.212 196.649 100.277 196.453 100.408C196.267 100.538 196.173 100.72 196.173 100.954C196.173 101.215 196.304 101.416 196.565 101.556C196.827 101.686 197.233 101.822 197.783 101.962C198.343 102.102 198.805 102.246 199.169 102.396C199.533 102.545 199.846 102.778 200.107 103.096C200.378 103.404 200.518 103.814 200.527 104.328C200.527 104.776 200.401 105.177 200.149 105.532C199.907 105.886 199.552 106.166 199.085 106.372C198.628 106.568 198.091 106.666 197.475 106.666ZM203.13 97.8596C202.785 97.8596 202.496 97.7522 202.262 97.5376C202.038 97.3136 201.926 97.0382 201.926 96.7116C201.926 96.3849 202.038 96.1142 202.262 95.8996C202.496 95.6756 202.785 95.5636 203.13 95.5636C203.476 95.5636 203.76 95.6756 203.984 95.8996C204.218 96.1142 204.334 96.3849 204.334 96.7116C204.334 97.0382 204.218 97.3136 203.984 97.5376C203.76 97.7522 203.476 97.8596 203.13 97.8596ZM204.096 98.7836V106.54H202.136V98.7836H204.096ZM209.477 106.666C208.73 106.666 208.058 106.502 207.461 106.176C206.863 105.84 206.392 105.368 206.047 104.762C205.711 104.155 205.543 103.455 205.543 102.662C205.543 101.868 205.715 101.168 206.061 100.562C206.415 99.9549 206.896 99.4882 207.503 99.1616C208.109 98.8256 208.786 98.6576 209.533 98.6576C210.279 98.6576 210.956 98.8256 211.563 99.1616C212.169 99.4882 212.645 99.9549 212.991 100.562C213.345 101.168 213.523 101.868 213.523 102.662C213.523 103.455 213.341 104.155 212.977 104.762C212.622 105.368 212.137 105.84 211.521 106.176C210.914 106.502 210.233 106.666 209.477 106.666ZM209.477 104.958C209.831 104.958 210.163 104.874 210.471 104.706C210.788 104.528 211.04 104.267 211.227 103.922C211.413 103.576 211.507 103.156 211.507 102.662C211.507 101.924 211.311 101.36 210.919 100.968C210.536 100.566 210.065 100.366 209.505 100.366C208.945 100.366 208.473 100.566 208.091 100.968C207.717 101.36 207.531 101.924 207.531 102.662C207.531 103.399 207.713 103.968 208.077 104.37C208.45 104.762 208.917 104.958 209.477 104.958ZM219.258 98.6716C220.182 98.6716 220.929 98.9656 221.498 99.5536C222.068 100.132 222.352 100.944 222.352 101.99V106.54H220.392V102.256C220.392 101.64 220.238 101.168 219.93 100.842C219.622 100.506 219.202 100.338 218.67 100.338C218.129 100.338 217.7 100.506 217.382 100.842C217.074 101.168 216.92 101.64 216.92 102.256V106.54H214.96V98.7836H216.92V99.7496C217.182 99.4136 217.513 99.1522 217.914 98.9656C218.325 98.7696 218.773 98.6716 219.258 98.6716Z" fill="white"/>
<defs>
<clipPath id="clip0_1_1411">
<rect width="38.5625" height="38.5625" fill="white" transform="translate(56.2998 81.8555)"/>
</clipPath>
</defs>
</svg>
