<svg width="110" height="100" viewBox="0 0 110 100" fill="none" xmlns="http://www.w3.org/2000/svg">
<path d="M79.4253 43.3472H74.5144V50.1579H68.4805V55.5832H74.5144V62.3936H79.4253V55.5832H85.7098V50.1579H79.4253V43.3472Z" fill="#6CBCFC"/>
<path d="M18.8139 78.6702C24.1425 78.6702 28.4614 83.4446 28.4614 89.3346C28.4614 95.2259 24.1428 100 18.8139 100C13.4864 100 9.1665 95.2259 9.1665 89.3346C9.1665 83.4446 13.4864 78.6702 18.8139 78.6702Z" fill="#6CBCFC"/>
<path d="M86.7427 78.6702C92.071 78.6702 96.3896 83.4446 96.3896 89.3346C96.3896 95.2259 92.071 100 86.7427 100C81.4157 100 77.0947 95.2259 77.0947 89.3346C77.0947 83.4446 81.4154 78.6702 86.7427 78.6702Z" fill="#6CBCFC"/>
<path d="M28.899 7.62852C28.3638 7.36171 27.7356 7.62433 27.4937 8.21358C27.2507 8.80282 27.4888 9.50095 28.0229 9.76596L36.9596 14.2469C37.1027 14.3166 37.2512 14.3525 37.3976 14.3525C37.8021 14.3525 38.1874 14.0965 38.3665 13.6619C38.609 13.0726 38.3725 12.3751 37.8373 12.1098L28.899 7.62852Z" fill="#6CBCFC"/>
<path d="M43.5906 10.3482C43.8477 10.3482 44.105 10.2474 44.3084 10.0389C44.7416 9.5995 44.7698 8.8601 44.3747 8.38063L37.7431 0.382729C37.348 -0.0931545 36.6751 -0.130843 36.2414 0.312438C35.8074 0.751831 35.7812 1.49123 36.1762 1.97011L42.8065 9.96771C43.017 10.2199 43.3044 10.3482 43.5906 10.3482Z" fill="#6CBCFC"/>
<path d="M55.8849 0.309933C55.449 -0.131255 54.7809 -0.0956601 54.3835 0.379925L47.7543 8.37872C47.359 8.8576 47.3871 9.59969 47.8203 10.0364C48.0235 10.2449 48.2811 10.3457 48.5381 10.3457C48.8244 10.3457 49.1117 10.2174 49.3219 9.9652L55.9509 1.9685C56.3489 1.48873 56.3197 0.749325 55.8849 0.309933Z" fill="#6CBCFC"/>
<path d="M52.7821 14.3526C52.9284 14.3526 53.0781 14.3167 53.2201 14.247L62.1573 9.76607C62.6919 9.50106 62.9284 8.80294 62.6876 8.21369C62.4436 7.62445 61.8166 7.36213 61.2812 7.62863L52.3424 12.1099C51.8072 12.3755 51.5721 13.073 51.8137 13.662C51.9939 14.0966 52.3789 14.3526 52.7821 14.3526Z" fill="#6CBCFC"/>
<path d="M101.501 19.8949H51.6604C50.6879 16.6813 47.9722 14.3491 44.7357 14.3491C41.5008 14.3491 38.7845 16.681 37.8115 19.8949C37.8115 19.8949 36.2165 19.8949 34.2471 19.8949C32.2784 19.8949 30.6837 22.9527 30.6837 26.7212V33.5493C30.6837 33.5493 28.8251 33.5493 26.5329 33.5493C24.2406 33.5493 19.895 36.7282 16.8232 40.6508L5.56183 55.0341C2.48951 58.9575 0 66.3389 0 71.527V75.7773C0 80.9651 1.76141 85.17 3.93435 85.17H7.86816C9.34168 79.9807 13.7298 76.2138 18.9136 76.2138C24.0961 76.2138 28.482 79.981 29.9583 85.17H30.6853H36.4744H75.7949C77.2719 79.9807 81.6589 76.2138 86.8428 76.2138C92.0255 76.2138 96.4126 79.981 97.8882 85.17C97.8882 85.17 100.599 85.17 103.943 85.17C107.29 85.17 110 80.9648 110 75.7773V29.2831C109.998 24.1007 106.193 19.8949 101.501 19.8949ZM31.0116 53.1954C31.0116 55.7857 29.1087 57.8918 26.7634 57.8918H17.2055C14.8602 57.8918 14.266 56.3657 15.8822 54.484L22.5135 46.7526C24.1275 44.87 26.6849 43.346 28.225 43.346C29.7651 43.346 31.0116 45.4503 31.0116 48.0424V53.1954V53.1954ZM92.0659 55.3101H92.0705L77.3217 71.3062L62.1233 55.3101H62.1276C59.8148 53.1356 58.338 49.9004 58.338 46.2794C58.338 39.7349 63.1371 34.4299 69.0572 34.4299C72.2604 34.4299 75.1293 35.9936 77.0928 38.4598C79.0599 35.9936 81.9265 34.4299 85.1306 34.4299C91.0531 34.4299 95.8487 39.7346 95.8487 46.2794C95.8511 49.9031 94.3765 53.138 92.0659 55.3101Z" fill="#6CBCFC"/>
</svg>
