<svg width="1006" height="371" viewBox="0 0 1006 371" fill="none" xmlns="http://www.w3.org/2000/svg">
<path d="M567.236 285.73C558.951 271.381 563.868 253.033 578.216 244.749L636.645 211.015C650.994 202.731 669.341 207.647 677.626 221.996L711.359 280.424C719.643 294.773 714.727 313.121 700.378 321.405L641.95 355.139C627.601 363.423 609.254 358.507 600.969 344.158L567.236 285.73Z" fill="#EFF6FE"/>
<rect x="915.928" y="33.4629" width="65.7521" height="65.7521" rx="16" transform="rotate(-30 915.928 33.4629)" fill="#EFF6FE"/>
<path d="M306.588 95.3993C322.592 99.6875 332.09 116.138 327.801 132.142L318.236 167.839C313.948 183.843 297.498 193.34 281.494 189.052L245.797 179.487C229.793 175.199 220.295 158.749 224.584 142.745L234.149 107.047C238.437 91.0434 254.887 81.546 270.891 85.8342L306.588 95.3993Z" fill="#EFF6FE"/>
<rect x="0.469238" y="277.209" width="65.7521" height="65.7521" rx="16" transform="rotate(-30 0.469238 277.209)" fill="#EFF6FE"/>
</svg>
